<svg t="1715246083102" class="icon" viewBox="0 0 1024 1024" version="1.1" xmlns="http://www.w3.org/2000/svg" p-id="1103" xmlns:xlink="http://www.w3.org/1999/xlink" width="64" height="64"><path d="M729.6071427 177.1919646h-301.33928595c-36.84375027 0-66.97767837 30.13392892-66.97767838 66.93749973v401.7857146c0 36.84375027 30.13392892 66.97767837 66.97767837 66.97767837h301.33928596c36.84375027 0 66.97767837-30.13392892 66.97767838-66.97767837v-401.7857146c0-36.80357163-30.13392892-66.93749973-66.97767838-66.93749973z m0 468.72321433h-301.33928595v-401.7857146h301.33928595v401.7857146zM227.37500027 612.44642864v-66.97767837h66.97767838V612.44642864H227.37500027z m0-184.13839324h66.97767838v66.93750055H227.37500027V428.3080354z m234.36160675 351.56250027h66.97767838v66.93749973H461.73660702v-66.93749973z m-234.36160675-50.22321432V662.66964297h66.97767838v66.97767839H227.37500027z m66.97767838 117.16071405c-36.84375027 0-66.97767837-30.13392892-66.97767838-66.93749973h66.97767838v66.93749973z m117.16071405 0H344.57589297v-66.93749973h66.93749973v66.93749973z m167.42410703 0v-66.93749973h66.97767919c0 36.80357163-30.13392892 66.93749973-66.97767919 66.93749973zM294.35267865 311.1071427v66.97767837H227.37500027c0-36.84375027 30.13392892-66.97767837 66.97767838-66.97767837z" fill="#414244" p-id="1104"></path></svg>