<svg t="1713329120949" class="icon" viewBox="0 0 1024 1024" version="1.1" xmlns="http://www.w3.org/2000/svg" p-id="18235" width="64" height="64"><path d="M286.929455 222.743273l224.232727 224.256L735.418182 222.743273a45.381818 45.381818 0 0 1 61.300363-2.653091l2.885819 2.653091a45.381818 45.381818 0 0 1 0 64.186182l-224.256 224.232727 224.256 224.256a45.381818 45.381818 0 0 1-64.186182 64.186182l-224.256-224.256-224.232727 224.256a45.381818 45.381818 0 0 1-61.300364 2.653091l-2.885818-2.653091a45.381818 45.381818 0 0 1 0-64.186182l224.256-224.256-224.256-224.232727A45.381818 45.381818 0 1 1 286.952727 222.72z" fill="#424242" p-id="18236"></path></svg>