<svg xmlns="http://www.w3.org/2000/svg" id="message" data-name="message" version="1.1" viewBox="0 0 15 15">
  <path class="cls-1" style="
        stroke-width: 0px;" d="M7.93,11.96c-1.52,0-3.04-.03-4.56,0-1.16.03-1.67-.53-1.67-1.65,0-2.07,0-4.14,0-6.21,0-1.2.54-1.74,1.8-1.71,2.92.05,5.84.04,8.76,0,1.16-.01,1.67.53,1.67,1.65,0,2.07,0,4.14,0,6.21,0,1.2-.54,1.77-1.8,1.71-1.4-.06-2.8-.01-4.2-.02ZM12.57,10.79v-5.98c-1.23.75-2.33,1.27-3.26,2.02-1.04.85-1.91.73-2.93.03-1.02-.7-2.12-1.29-3.33-2.02v5.96h9.52ZM12.61,3.62H3.04c1.59.99,2.77,1.82,4.03,2.47.42.22,1.16.2,1.59-.03,1.22-.64,2.36-1.45,3.94-2.45Z"/>
</svg>