<svg t="1713169213363" class="icon" viewBox="0 0 1024 1024" version="1.1" xmlns="http://www.w3.org/2000/svg" p-id="15945" width="64" height="64"><path d="M187.00832 834.839787a242.512403 242.512403 0 0 1 24.359024-14.011828l82.562-41.281a80.837468 80.837468 0 0 0 42.25105-52.706029l13.472911-53.945537A404.187339 404.187339 0 0 1 269.462537 431.191364v-26.945822a242.512403 242.512403 0 0 1 485.024807 0V431.191364a404.187339 404.187339 0 0 1-80.190768 241.704029l13.472911 53.945537a80.837468 80.837468 0 0 0 42.25105 52.706029l82.562 41.281c8.407097 4.203548 16.544735 8.892121 24.412916 14.011828a458.078984 458.078984 0 1 0-649.987133 0z m-24.466807 51.358737A511.970629 511.970629 0 1 1 511.974941 1023.999461a510.084421 510.084421 0 0 1-341.834706-130.848914 26.945823 26.945823 0 0 1-7.54483-6.952023z m66.556182-13.850152A456.138885 456.138885 0 0 0 511.974941 970.107816c106.705457 0 205.003818-36.538535 282.877245-97.759444a188.620758 188.620758 0 0 0-6.359214-3.341282l-82.562-41.227109a134.729113 134.729113 0 0 1-70.436381-87.843382l-4.473006-17.945917A404.349014 404.349014 0 0 1 592.812408 754.541235a134.729113 134.729113 0 0 1-161.674935 0 404.349014 404.349014 0 0 1-38.209177-32.550553l-4.473006 17.945917a134.729113 134.729113 0 0 1-70.43638 87.843382l-82.562001 41.227109a188.620758 188.620758 0 0 0-6.359214 3.341282z m170.567057-222.895845l0.700591 0.916158c18.215376 22.634491 39.340901 43.221099 63.107117 61.059234a80.837468 80.837468 0 0 0 97.004961 0A350.134019 350.134019 0 0 0 700.595699 431.191364v-26.945822a188.620758 188.620758 0 0 0-377.241516 0V431.191364a350.295694 350.295694 0 0 0 76.310569 218.261163z" fill="#000000" p-id="15946"></path></svg>