<svg t="1713169363488" class="icon" viewBox="0 0 1540 1024" version="1.1" xmlns="http://www.w3.org/2000/svg" p-id="20550" width="64" height="64"><path d="M1152.048153 220.786213q14.536885 0 24.538263 10.437483t10.001377 24.974369v417.93545q0 14.536885-10.001377 24.538262t-24.538263 10.001377H397.031409q-13.635598 0-24.073082-10.437483t-10.437483-24.073082V256.227139q0-14.536885 10.437483-24.974369t24.073082-10.437484h755.016744zM1104.803276 434.303983h-190.811155v191.712442H1104.803276v-191.712442zM506.058048 289.836417h-68.148918v69.050205h68.148918V289.836417z m129.029393 0H566.938523v69.050205h68.148918V289.836417z m129.00032 0h-68.148918v69.050205h68.148918V289.836417z m340.715515 0h-68.148917v69.050205H1104.803276V289.836417zM501.52254 0.901287q35.440926 0 35.440926 34.539639v162.638672q0 34.539639-34.975746 34.539639t-34.975746-34.539639V35.440926q0-34.539639 34.53964-34.539639z m0 684.163966q35.440926 0 35.440926 35.440926v173.541336q0 35.440926-34.975746 35.440926t-34.975746-35.440926v-173.541336q0-35.440926 34.53964-35.440926z m116.295082-684.163966q35.440926 0 35.440926 34.539639v162.638672q0 34.539639-34.975746 34.539639t-34.975746-34.539639V35.440926q0-34.539639 34.539639-34.539639z m325.277343 0q34.539639 0 34.53964 34.539639v162.638672q0 34.539639-34.53964 34.539639T908.555326 198.079598V35.440926q0-34.539639 34.539639-34.539639z m-174.442622 673.261302q35.440926 0 35.440926 34.539639v162.638672q0 34.539639-34.975746 34.539639t-34.975746-34.539639v-162.638672q0-34.539639 34.539639-34.539639zM1070.292711 0.901287q35.440926 0 35.440926 34.539639v162.638672q0 34.539639-34.975746 34.539639t-34.975746-34.539639V35.440926q0-34.539639 34.53964-34.539639z m0 673.261302q35.440926 0 35.440926 34.539639v58.147541q0 34.539639-34.975746 34.539639t-34.975746-34.539639v-58.147541q0-34.539639 34.53964-34.539639z m-301.640368 185.345286h371.59186q35.440926 0 35.440926 34.975746t-35.440926 34.975746H768.652343q-34.539639 0-34.53964-34.975746t34.53964-34.975746z" p-id="20551"></path></svg>