<svg t="1715249676020" class="icon" viewBox="0 0 1024 1024" version="1.1" xmlns="http://www.w3.org/2000/svg" p-id="1137" width="65" height="65"><path d="M829.013333 553.813333c1.706667-13.653333 2.986667-27.306667 2.986667-41.813333 0-14.506667-1.28-28.16-2.986667-41.813333l90.026667-70.4c8.106667-6.4 10.24-17.92 5.12-27.306667l-85.333333-147.626667a21.333333 21.333333 0 0 0-26.026667-9.386666l-106.24 42.666666c-22.186667-17.066667-46.08-31.146667-72.106667-41.813333l-16.213333-113.066667A20.821333 20.821333 0 0 0 597.333333 85.333333h-170.666666c-10.666667 0-19.626667 7.68-20.906667 17.92l-16.213333 113.066667c-26.026667 10.666667-49.92 25.173333-72.106667 41.813333l-106.24-42.666666a24.149333 24.149333 0 0 0-7.68-1.28c-7.253333 0-14.506667 3.84-18.346667 10.666666l-85.333333 147.626667c-5.546667 9.386667-2.986667 20.906667 5.12 27.306667l90.026667 70.4c-1.706667 13.653333-2.986667 27.733333-2.986667 41.813333 0 14.08 1.28 28.16 2.986667 41.813333l-90.026667 70.4c-8.106667 6.4-10.24 17.92-5.12 27.306667l85.333333 147.626667a21.333333 21.333333 0 0 0 26.026667 9.386666l106.24-42.666666c22.186667 17.066667 46.08 31.146667 72.106667 41.813333l16.213333 113.066667c1.28 10.24 10.24 17.92 20.906667 17.92h170.666666c10.666667 0 19.626667-7.68 20.906667-17.92l16.213333-113.066667c26.026667-10.666667 49.92-25.173333 72.106667-41.813333l106.24 42.666666c2.56 0.853333 5.12 1.28 7.68 1.28 7.253333 0 14.506667-3.84 18.346667-10.666666l85.333333-147.626667c5.12-9.386667 2.986667-20.906667-5.12-27.306667l-90.026667-70.4z m-84.48-72.96c1.706667 13.226667 2.133333 22.186667 2.133334 31.146667 0 8.96-0.853333 18.346667-2.133334 31.146667l-5.973333 48.213333 37.973333 29.866667 46.08 35.84-29.866666 51.626666-54.186667-21.76-44.373333-17.92-38.4 29.013334c-18.346667 13.653333-35.84 23.893333-53.333334 31.146666l-45.226666 18.346667-6.826667 48.213333-8.533333 57.6h-59.733334l-8.106666-57.6-6.826667-48.213333-45.226667-18.346667c-18.346667-7.68-35.413333-17.493333-52.48-30.293333l-38.826666-29.866667-45.226667 18.346667-54.186667 21.76-29.866666-51.626667 46.08-35.84 37.973333-29.866666-5.973333-48.213334c-1.28-13.226667-2.133333-23.04-2.133334-31.573333s0.853333-18.346667 2.133334-31.146667l5.973333-48.213333-37.973333-29.866667-46.08-35.84 29.866666-51.626666 54.186667 21.76 44.373333 17.92 38.4-29.013334c18.346667-13.653333 35.84-23.893333 53.333334-31.146666l45.226666-18.346667 6.826667-48.213333 8.533333-57.6h59.306667l8.106667 57.6 6.826666 48.213333 45.226667 18.346667c18.346667 7.68 35.413333 17.493333 52.48 30.293333l38.826667 29.866667 45.226666-18.346667 54.186667-21.76 29.866667 51.626667-45.653334 36.266666-37.973333 29.866667 5.973333 48.213333zM512 341.333333c-94.293333 0-170.666667 76.373333-170.666667 170.666667s76.373333 170.666667 170.666667 170.666667 170.666667-76.373333 170.666667-170.666667-76.373333-170.666667-170.666667-170.666667z m0 256c-46.933333 0-85.333333-38.4-85.333333-85.333333s38.4-85.333333 85.333333-85.333333 85.333333 38.4 85.333333 85.333333-38.4 85.333333-85.333333 85.333333z" fill="#2c2c2c" p-id="1138"></path></svg>