<svg t="1713169487315" class="icon" viewBox="0 0 1025 1024" version="1.1" xmlns="http://www.w3.org/2000/svg" p-id="25100" width="64" height="64"><path d="M512 350.4c-56 0-102.4 46.4-102.4 97.6 0 38.4 25.6 72 59.2 89.6v315.2c0 25.6 17.6 43.2 43.2 43.2s43.2-17.6 43.2-43.2V542.4c33.6-17.6 59.2-51.2 59.2-89.6 0-56-46.4-102.4-102.4-102.4z m0 84.8c8 0 17.6 8 17.6 12.8s-8 12.8-17.6 12.8c-8 0-17.6-8-17.6-12.8s9.6-12.8 17.6-12.8z" p-id="25101"></path><path d="M392 302.4c-17.6-17.6-43.2-17.6-59.2 0-38.4 38.4-56 84.8-56 136s20.8 102.4 56 140.8c8 8 20.8 12.8 30.4 12.8 12.8 0 20.8-4.8 30.4-12.8 17.6-17.6 17.6-43.2 0-59.2-20.8-20.8-33.6-46.4-33.6-76.8s12.8-56 33.6-76.8c16-20.8 16-46.4-1.6-64zM691.2 302.4c-17.6-17.6-43.2-17.6-59.2 0-17.6 17.6-17.6 43.2 0 59.2 20.8 20.8 33.6 46.4 33.6 76.8s-12.8 56-33.6 76.8c-17.6 17.6-17.6 43.2 0 59.2 8 8 20.8 12.8 30.4 12.8 12.8 0 20.8-4.8 30.4-12.8 38.4-38.4 56-84.8 56-140.8 1.6-44.8-19.2-96-57.6-131.2z" p-id="25102"></path><path d="M222.4 440c0-59.2 20.8-115.2 64-158.4 17.6-17.6 17.6-43.2 0-59.2-17.6-17.6-43.2-17.6-59.2 0-59.2 59.2-89.6 136-89.6 217.6s33.6 158.4 89.6 217.6c8 8 17.6 12.8 30.4 12.8 12.8 0 20.8-4.8 30.4-12.8 17.6-17.6 17.6-43.2 0-59.2-40-43.2-65.6-99.2-65.6-158.4zM798.4 222.4c-17.6-17.6-43.2-17.6-59.2 0s-17.6 43.2 0 59.2c43.2 43.2 64 97.6 64 158.4s-20.8 115.2-64 158.4c-17.6 17.6-17.6 43.2 0 59.2 8 8 20.8 12.8 30.4 12.8 12.8 0 20.8-4.8 30.4-12.8 59.2-59.2 89.6-136 89.6-217.6-1.6-81.6-36.8-163.2-91.2-217.6z" p-id="25103"></path><path d="M84.8 440c0-89.6 33.6-174.4 97.6-238.4 17.6-17.6 17.6-43.2 0-59.2s-43.2-17.6-59.2 0c-80 80-123.2 182.4-123.2 297.6s43.2 217.6 123.2 299.2c8 8 17.6 12.8 30.4 12.8 12.8 0 20.8-4.8 30.4-12.8 17.6-17.6 17.6-43.2 0-59.2-64-65.6-99.2-150.4-99.2-240zM900.8 140.8c-17.6-17.6-43.2-17.6-59.2 0s-17.6 43.2 0 59.2c64 64 97.6 148.8 97.6 238.4s-33.6 174.4-97.6 238.4c-17.6 17.6-17.6 43.2 0 59.2 8 8 20.8 12.8 30.4 12.8 12.8 0 20.8-4.8 30.4-12.8 81.6-81.6 123.2-187.2 123.2-299.2s-44.8-214.4-124.8-296z" p-id="25104"></path></svg>