<svg xmlns="http://www.w3.org/2000/svg" id="signal" data-name="signal" version="1.1" viewBox="0 0 15 15">
  <path class="cls-3" style="stroke-width: 0px;" d="M13.78,7.51c-.1,1.43-.33,2.68-1.21,3.68-.25.28-.31,1.06-.99.62-.55-.36-.35-.76-.03-1.22.45-.64.79-1.35.9-2.15.3-2.22-.71-4.15-2.66-5.09-1.84-.88-4.17-.5-5.56.9-1.43,1.45-1.76,3.81-.78,5.73.11.21.21.46.37.62.4.38.63.75.05,1.15-.67.47-.83-.22-1.06-.54-1.44-1.99-1.6-4.12-.48-6.3,1.3-2.53,4.12-3.79,6.87-3.08,2.59.67,4.61,3.25,4.57,5.69Z"/>
  <path class="cls-2" style="stroke-width: 0px;" d="M11.33,7.88c-.07.32-.09.76-.25,1.14-.22.53-.41,1.34-1.17,1.07-.8-.29-.4-.87-.1-1.44.58-1.11.24-2.11-.73-2.86-.84-.65-1.78-.73-2.67-.1-.98.69-1.39,1.64-.95,2.82.22.59.87,1.32-.09,1.62-.67.21-.85-.69-1.05-1.22-.56-1.45-.21-2.78.86-3.83,1.15-1.13,2.56-1.31,4.03-.66,1.44.63,1.98,1.87,2.11,3.45Z"/>
  <path class="cls-1" style="stroke-width: 0px;" d="M7.58,6.52c.92-.01,1.46.59,1.21,1.25-.65,1.71-.33,3.45-.42,5.17-.02.45-.06.86-.64.88-.72.03-.69-.49-.72-.99-.11-1.66.26-3.34-.43-4.99-.31-.73.31-1.2,1.01-1.33Z"/>
</svg>