<svg t="1713175059808" class="icon" viewBox="0 0 1024 1024" version="1.1" xmlns="http://www.w3.org/2000/svg" p-id="7304" width="64" height="64"><path d="M316.834 810.68h397.314v42.654H316.834z" fill="#2c2c2c" p-id="7305"></path><path d="M750.868 1008.672l-456.112-135.778 12.172-40.904 456.096 135.778zM697.682 829.084L342.114 710.4l13.514-40.466 355.552 118.684zM628.434 661.34l-239.446-80.216 13.548-40.436 239.46 80.184z" fill="#2c2c2c" p-id="7306"></path><path d="M371.05 639.996h288.008v42.686H371.05zM422.612 512h185.76v42.686h-185.76z" fill="#2c2c2c" p-id="7307"></path><path d="M512 213.352L215.226 1023.984h593.546L512 213.352z m0 124.106l235.742 643.872H276.272L512 337.458z" fill="#2c2c2c" p-id="7308"></path><path d="M512 277.35m-63.998 0a63.998 63.998 0 1 0 127.996 0 63.998 63.998 0 1 0-127.996 0Z" fill="#2c2c2c" p-id="7309"></path><path d="M656.934 165.884c-11.75 0-21.312 9.562-21.312 21.344 0 4.516 1.406 8.688 3.812 12.14 14.25 23.232 21.876 50.014 21.876 77.98 0 27.954-7.624 54.75-21.876 77.966a21.184 21.184 0 0 0-3.812 12.156c0 11.782 9.562 21.328 21.312 21.328 7.594 0 14.25-3.954 18.03-9.922 18.406-29.454 29.032-64.248 29.032-101.53 0-37.28-10.624-72.074-29.032-101.528a21.316 21.316 0 0 0-18.03-9.934z" fill="#2c2c2c" p-id="7310"></path><path d="M774.898 94.918l-0.032 0.016a21.226 21.226 0 0 0-18.062-10.032c-11.75 0-21.312 9.546-21.312 21.328 0 4.484 1.376 8.64 3.75 12.094a275.348 275.348 0 0 1 28.312 51.092c14.438 34.156 21.75 70.466 21.75 107.934 0 37.454-7.312 73.764-21.75 107.936a276.378 276.378 0 0 1-28.312 51.092 21.16 21.16 0 0 0-3.75 12.094c0 11.782 9.562 21.328 21.312 21.328 7.624 0 14.312-4.016 18.062-10.032l0.032 0.016c35.966-51.764 57.092-114.624 57.092-182.434s-21.124-130.684-57.092-182.432z" fill="#2c2c2c" p-id="7311"></path><path d="M870.894 9.186l-0.032 0.032C866.986 3.674 860.58 0.016 853.3 0.016c-11.748 0-21.31 9.56-21.31 21.342 0 4.954 1.688 9.5 4.5 13.124 0.094 0.11 0.188 0.204 0.282 0.312a401.706 401.706 0 0 1 48.716 84.794c21.124 49.952 31.812 103.012 31.812 157.76 0 54.734-10.688 107.81-31.812 157.746a402.22 402.22 0 0 1-48.716 84.81c-0.094 0.11-0.188 0.204-0.282 0.312a21.302 21.302 0 0 0-4.5 13.124c0 11.78 9.562 21.342 21.31 21.342 7.282 0 13.688-3.656 17.562-9.188h0.032c55.968-74.762 89.092-167.588 89.092-268.148 0-100.57-33.122-193.396-89.092-268.16zM367.05 165.884c11.782 0 21.344 9.562 21.344 21.344 0 4.516-1.422 8.688-3.812 12.14-14.282 23.232-21.906 50.014-21.906 77.98 0 27.954 7.624 54.75 21.906 77.966a21.302 21.302 0 0 1 3.812 12.156c0 11.782-9.562 21.328-21.344 21.328-7.578 0-14.234-3.954-18.032-9.922-18.374-29.454-29.014-64.248-29.014-101.53 0-37.28 10.64-72.074 29.014-101.528 3.798-5.964 10.454-9.934 18.032-9.934z" fill="#2c2c2c" p-id="7312"></path><path d="M249.102 94.918l0.016 0.016c3.766-6.032 10.438-10.032 18.062-10.032 11.78 0 21.342 9.546 21.342 21.328 0 4.484-1.406 8.64-3.766 12.094a275.34 275.34 0 0 0-28.31 51.092c-14.438 34.156-21.766 70.466-21.766 107.934 0 37.454 7.328 73.764 21.766 107.936a276.486 276.486 0 0 0 28.31 51.092 21.294 21.294 0 0 1 3.766 12.094c0 11.782-9.562 21.328-21.342 21.328-7.624 0-14.296-4.016-18.062-10.032l-0.016 0.016c-35.984-51.764-57.092-114.624-57.092-182.434s21.108-130.684 57.092-182.432z" fill="#2c2c2c" p-id="7313"></path><path d="M153.104 9.186l0.046 0.032C156.994 3.674 163.4 0.016 170.682 0.016c11.782 0 21.328 9.56 21.328 21.342 0 4.954-1.688 9.5-4.516 13.124-0.094 0.11-0.188 0.204-0.266 0.312a403.084 403.084 0 0 0-48.718 84.796c-21.124 49.952-31.826 103.012-31.826 157.76 0 54.734 10.704 107.81 31.826 157.746a403.538 403.538 0 0 0 48.718 84.81c0.078 0.11 0.172 0.204 0.266 0.312a21.218 21.218 0 0 1 4.516 13.124c0 11.78-9.546 21.342-21.328 21.342a21.318 21.318 0 0 1-17.532-9.188h-0.046c-55.952-74.762-89.09-167.588-89.09-268.148 0-100.572 33.138-193.398 89.09-268.162z" fill="#2c2c2c" p-id="7314"></path></svg>