
<svg xmlns="http://www.w3.org/2000/svg" xmlns:xlink="http://www.w3.org/1999/xlink" viewBox="0 0 20 20" width="20" height="20" fill="none">
  <svg xmlns="http://www.w3.org/2000/svg" height="20" width="20" viewBox="0 0 24 24" fill="#2b2c2b" x="0" y="0" opacity="100%">
    <path d="M6.1 4.1 4.9 2.9C3 4.9 2 7.4 2 10c0 2.6 1 5.1 2.9 7.1l1.2-1.2c-1.6-1.6-2.4-3.8-2.4-5.9 0-2.1.8-4.3 2.4-5.9zm10.6 10.6c1.3-1.3 2-3 2-4.7-.1-1.7-.7-3.4-2-4.7l-1.2 1.2c1 1 1.5 2.3 1.5 3.5 0 1.3-.5 2.6-1.5 3.5l1.2 1.2zM14.5 10a2.5 2.5 0 0 0-5 0c0 .76.34 1.42.87 1.88L7 22h2l.67-2h4.67l.66 2h2l-3.37-10.12c.53-.46.87-1.12.87-1.88zm-4.17 8L12 13l1.67 5h-3.34z"></path>
  </svg>
  <defs>
    <filter id="filter_dshadow_10_0_2_0000001a" color-interpolation-filters="sRGB" filterUnits="userSpaceOnUse">
      <feFlood flood-opacity="0" result="bg-fix"></feFlood>
      <feColorMatrix in="SourceAlpha" type="matrix" values="0 0 0 0 0 0 0 0 0 0 0 0 0 0 0 0 0 0 127 0" result="alpha"></feColorMatrix>
      <feOffset dx="0" dy="2"></feOffset>
      <feGaussianBlur stdDeviation="5"></feGaussianBlur>
      <feComposite in2="alpha" operator="out"></feComposite>
      <feColorMatrix type="matrix" values="0 0 0 0 0 0 0 0 0 0 0 0 0 0 0 0 0 0 0.1 0"></feColorMatrix>
      <feBlend mode="normal" in2="bg-fix" result="bg-fix-filter_dshadow_10_0_2_0000001a"></feBlend>
      <feBlend in="SourceGraphic" in2="bg-fix-filter_dshadow_10_0_2_0000001a" result="shape"></feBlend>
    </filter>
  </defs>
</svg>