<svg t="1713167224958" class="icon" viewBox="0 0 1024 1024" version="1.1" xmlns="http://www.w3.org/2000/svg" p-id="14044" width="64" height="64"><path d="M551.488 159.061333l1.706667-2.282666a21.333333 21.333333 0 0 1 27.946666-3.925334l2.133334 1.621334L874.666667 404.224 583.253333 653.973333a21.333333 21.333333 0 0 1-34.666666-20.906666l0.682666-2.389334L606.293333 469.333333H533.333333a149.333333 149.333333 0 0 0-149.333333 149.333334v277.333333h-128V618.666667c0-153.173333 124.16-277.333333 277.333333-277.333334h73.749334l-57.813334-163.562666a21.333333 21.333333 0 0 1 2.218667-18.709334l1.706667-2.282666-1.706667 2.282666z" fill="#000000" p-id="14045"></path></svg>