<?xml version="1.0" standalone="no"?><!DOCTYPE svg PUBLIC "-//W3C//DTD SVG 1.1//EN" "http://www.w3.org/Graphics/SVG/1.1/DTD/svg11.dtd"><svg t="1717740097618" class="icon" viewBox="0 0 1024 1024" version="1.1" xmlns="http://www.w3.org/2000/svg" p-id="1722" id="mx_n_1717740097619" xmlns:xlink="http://www.w3.org/1999/xlink" width="200" height="200"><path d="M254.293333 346.453333c0-37.546667 27.306667-69.973333 61.44-69.973333s61.44 30.72 61.44 69.973333c0 37.546667-27.306667 69.973333-61.44 69.973334s-61.44-30.72-61.44-69.973334zM670.72 346.453333c0-37.546667 27.306667-69.973333 61.44-69.973333s61.44 30.72 61.44 69.973333c0 37.546667-27.306667 69.973333-61.44 69.973334s-61.44-30.72-61.44-69.973334zM522.24 865.28c-168.96 0-307.2-129.706667-322.56-293.546667h645.12c-17.066667 163.84-153.6 293.546667-322.56 293.546667z" fill="#2c2c2c" p-id="1723"></path><path d="M508.586667 989.866667c-262.826667 0-477.866667-215.04-477.866667-477.866667s215.04-477.866667 477.866667-477.866667 477.866667 215.04 477.866666 477.866667-215.04 477.866667-477.866666 477.866667z m0-904.533334C273.066667 85.333333 81.92 276.48 81.92 512s191.146667 426.666667 426.666667 426.666667 426.666667-191.146667 426.666666-426.666667-191.146667-426.666667-426.666666-426.666667z" fill="#2c2c2c" p-id="1724"></path></svg>